<?xml version="1.0" encoding="UTF-8" standalone="no"?>
<svg
   xmlns:dc="http://purl.org/dc/elements/1.1/"
   xmlns:cc="http://creativecommons.org/ns#"
   xmlns:rdf="http://www.w3.org/1999/02/22-rdf-syntax-ns#"
   xmlns:svg="http://www.w3.org/2000/svg"
   xmlns="http://www.w3.org/2000/svg"
   xmlns:xlink="http://www.w3.org/1999/xlink"
   
   id="svg4201"
   version="1.0"
style="background-color:black;">
  <g
     id="layer3"
    transform="translate (-300 -250) scale(4 4)">
 <g
     id="layer3"
     style="display:inline"
  >
    <path
       id="path4778"
       style="fill:none;fill-opacity:1;fill-rule:evenodd;stroke:#ff3506;stroke-width:2;stroke-linecap:butt;stroke-linejoin:miter;stroke-miterlimit:4;stroke-dasharray:none;stroke-dashoffset:0;stroke-opacity:1;display:inline"
       d="M 200.45288,260.80553 L 203.16177,253.84124 L 225.12833,263.88589 C 227.03295,264.83725 228.33805,264.53956 228.33805,262.63589 L 228.40255,256.61982 C 228.40255,250.22869 224.75105,247.90625 219.51131,243.70732 L 208.47788,235.31446 L 211.28639,196.92161 L 261.23772,213.1716 C 263.62163,213.95469 264.64806,212.98991 264.64806,211.20732 L 264.82432,201.9216 C 264.82432,194.61271 260.92135,191.45797 255.6207,187.81446 L 213.09186,157.27875 C 212.31569,139.15817 210.07741,119.6713 200.45288,103.52874 C 190.82836,119.6713 188.59008,139.15817 187.81391,157.27875 L 145.28507,187.81446 C 139.98442,191.45797 136.08145,194.61271 136.08145,201.9216 L 136.25771,211.20732 C 136.25771,212.98991 137.28414,213.95469 139.66805,213.1716 L 189.61938,196.92161 L 192.42789,235.31446 L 181.39446,243.70732 C 176.15472,247.90625 172.50322,250.22869 172.50322,256.61982 L 172.56772,262.63589 C 172.56772,264.53956 173.87282,264.83725 175.77744,263.88589 L 197.744,253.84124 L 200.45288,260.80553 z"
      />
  
  </g>
  </g>
</svg>
