<?xml version="1.0" encoding="UTF-8" standalone="no"?>
<svg
   xmlns:dc="http://purl.org/dc/elements/1.1/"
   xmlns:cc="http://creativecommons.org/ns#"
   xmlns:rdf="http://www.w3.org/1999/02/22-rdf-syntax-ns#"
   xmlns:svg="http://www.w3.org/2000/svg"
   xmlns="http://www.w3.org/2000/svg"
   xmlns:xlink="http://www.w3.org/1999/xlink"
   
   id="svg4201"
   version="1.0"
style="background-color:black;">
  <g
     id="layer3"
    transform="translate (-300 -250) scale(4 4)">
       <g
       id="g5978"
      >
      <path
         d="M 216.90814,94.49218 L 221.00301,71.268991 M 209.06063,89.427589 L 210.77186,69.868045 M 191.84516,89.427589 L 190.13392,69.868045 M 174.90277,92.46009 L 169.82095,73.49452 M 158.72724,98.333526 L 150.43876,80.558802 M 143.81159,106.92231 L 132.55755,90.849873 M 130.57785,117.93943 L 116.70284,104.06442 M 119.56073,131.17317 L 103.4883,119.91913 M 110.97533,146.0904 L 93.198548,137.80095 M 105.10378,162.26576 L 86.131941,157.18227 M 102.07298,179.20735 L 82.509196,177.49573 M 102.07365,196.42153 L 82.509459,198.13318 M 105.06874,213.37257 L 86.129634,218.44729 M 111.00396,229.52519 L 93.195021,237.82963 M 119.5817,244.4411 L 103.48254,255.71385 M 130.60911,257.65826 L 130.59349,257.67388 M 130.59349,257.67388 L 116.69676,271.57062 M 143.81521,268.70146 L 132.54025,284.80378 M 158.7302,277.28907 L 150.43992,295.06764 M 174.9047,283.16163 L 169.82172,302.13158 M 191.84583,286.1937 L 190.13419,305.7579 M 209.05998,286.1937 L 210.77162,305.7579 M 226.00111,283.16163 L 231.08409,302.13158 M 242.17559,277.28907 L 250.46588,295.06764 M 257.0906,268.70143 L 268.36557,284.80375 M 270.2967,257.65823 L 270.31233,257.67385 M 270.31233,257.67385 L 284.20297,271.56449 M 281.32411,244.44106 L 297.42328,255.71382 M 289.92753,229.53715 L 307.71807,237.83301 M 295.83708,213.37255 L 314.77618,218.44728 M 298.83213,196.4215 L 318.39633,198.13315 M 298.8328,179.20732 L 318.39659,177.4957 M 295.80201,162.26573 L 314.77384,157.18224 M 289.93046,146.09037 L 307.70723,137.80092 M 281.32768,131.1853 L 297.40997,119.92435 M 270.32792,117.9394 L 284.20292,104.06439 M 257.09419,106.92229 L 268.34822,90.849846 M 242.17854,98.333511 L 250.46702,80.558782 M 226.00302,92.460068 L 231.08482,73.494498 M 200.45289,93.052528 L 200.45289,69.369853 M 184.01261,94.577019 L 179.90207,71.264991 M 168.06663,98.833938 L 159.98011,76.616402 M 153.11848,105.82886 L 141.28292,85.329071 M 139.56216,115.24771 L 124.35101,97.119776 M 127.88696,126.92442 L 109.75849,111.71283 M 118.45035,140.47029 L 97.946325,128.63228 M 111.47724,155.42999 L 89.256529,147.3423 M 107.19207,171.37007 L 83.875523,167.25873 M 105.66835,187.81446 L 81.980025,187.81446 M 107.19355,204.25862 L 83.876039,208.37012 M 111.48002,220.19795 L 89.2575,228.28628 M 118.44057,235.16432 L 97.947634,246.99592 M 127.89122,248.70095 L 109.75998,263.91488 M 139.56642,260.37614 L 124.3525,278.5074 M 153.12223,269.79359 L 141.27071,290.32104 M 168.06944,276.78736 L 159.9811,299.00987 M 184.00877,281.0738 L 179.90261,304.36101 M 200.45291,282.56776 L 200.45291,306.25608 M 216.89704,281.0738 L 221.00321,304.36101 M 232.83639,276.78736 L 240.92473,299.00987 M 247.78358,269.79356 L 259.63512,290.32101 M 261.33936,260.37614 L 276.5533,278.50738 M 273.01457,248.70094 L 291.14583,263.91485 M 282.46522,235.16429 L 302.95816,246.99589 M 289.42576,220.19793 L 311.64829,228.28626 M 293.71223,204.25858 L 317.02974,208.37009 M 295.23744,187.81445 L 318.92575,187.81445 M 293.71372,171.37005 L 317.03026,167.25871 M 289.42857,155.42996 L 311.64927,147.34227 M 282.45542,140.47025 L 302.95944,128.63225 M 273.01881,126.9244 L 291.14729,111.7128 M 261.34361,115.2477 L 276.55026,97.125115 M 247.78729,105.82884 L 259.62284,85.329048 M 232.83914,98.833923 L 240.92566,76.616382"
         style="fill:black;fill-opacity:1;fill-rule:evenodd;stroke:#ffffff;stroke-width:3;stroke-linecap:butt;stroke-linejoin:miter;stroke-miterlimit:4;stroke-dasharray:none;stroke-dashoffset:0;stroke-opacity:1;display:inline"
         id="path5639" />
      <path
         id="text5666"
         d="M 192.03248,118.07186 L 192.03248,96.597252 L 194.94752,96.597252 L 206.22682,113.45761 L 206.22682,96.597252 L 208.95143,96.597252 L 208.95143,118.07186 L 206.03639,118.07186 L 194.75709,101.19686 L 194.75709,118.07186 L 192.03248,118.07186"
         style="font-size:30px;font-style:normal;font-variant:normal;font-weight:normal;font-stretch:normal;fill:#ffffff;fill-opacity:1;stroke:none;stroke-width:1px;stroke-linecap:butt;stroke-linejoin:miter;stroke-opacity:1;display:inline;font-family:Arial;" />
      <path
         id="text5670"
         d="M 191.89048,265.1002 L 194.57115,265.33457 C 194.69809,264.26035 194.99106,263.37656 195.45005,262.68321 C 195.9188,261.99961 196.64145,261.44297 197.61802,261.01328 C 198.59458,260.59336 199.69321,260.3834 200.91392,260.3834 C 201.99789,260.3834 202.95492,260.54453 203.78501,260.8668 C 204.61508,261.18906 205.23031,261.62852 205.63072,262.18516 C 206.04086,262.75156 206.24593,263.3668 206.24595,264.03086 C 206.24593,264.70468 206.05062,265.29062 205.66001,265.78868 C 205.26937,266.29648 204.62484,266.72128 203.72642,267.06309 C 203.15023,267.28769 201.87582,267.63437 199.90318,268.10313 C 197.93051,268.58163 196.54868,269.03085 195.75767,269.45078 C 194.73227,269.98788 193.96567,270.65194 193.45786,271.44297 C 192.95982,272.24374 192.71079,273.13729 192.71079,274.12364 C 192.71079,275.2076 193.01841,276.21834 193.63365,277.15586 C 194.24888,278.10311 195.14731,278.82088 196.32896,279.30918 C 197.51059,279.79744 198.82407,280.04158 200.26939,280.0416 C 201.86117,280.04158 203.26254,279.78279 204.47349,279.26524 C 205.69418,278.7574 206.63168,278.00545 207.28599,277.00938 C 207.94027,276.01327 208.29183,274.88534 208.34068,273.62559 L 205.61607,273.42051 C 205.46957,274.77792 204.97152,275.80331 204.12193,276.49668 C 203.28207,277.19002 202.03695,277.5367 200.38658,277.53672 C 198.66782,277.5367 197.41294,277.21932 196.62193,276.58457 C 195.84067,275.95956 195.45005,275.20272 195.45005,274.31407 C 195.45005,273.54257 195.72837,272.9078 196.28501,272.40977 C 196.83188,271.91171 198.25766,271.39901 200.56236,270.87168 C 202.8768,270.35409 204.46371,269.89999 205.3231,269.50938 C 206.57308,268.9332 207.49593,268.20077 208.09165,267.31211 C 208.68734,266.4332 208.98519,265.41757 208.98521,264.26524 C 208.98519,263.12265 208.65804,262.04355 208.00376,261.02793 C 207.34945,260.02207 206.40707,259.23594 205.17661,258.66953 C 203.9559,258.11289 202.57895,257.83457 201.04576,257.83457 C 199.10239,257.83457 197.47153,258.11778 196.15318,258.68418 C 194.84458,259.25059 193.81431,260.1002 193.06236,261.23301 C 192.32017,262.37559 191.92954,263.66465 191.89048,265.1002"
         style="font-size:30px;font-style:normal;font-variant:normal;font-weight:normal;font-stretch:normal;fill:#ffffff;fill-opacity:1;stroke:none;stroke-width:1px;stroke-linecap:butt;stroke-linejoin:miter;stroke-opacity:1;display:inline;font-family:Arial;" />
      <path
         id="text5674"
         d="M 131.09492,179.70744 L 109.62031,174.0092 L 109.62031,176.92423 L 123.69746,180.19084 C 125.17207,180.54239 126.63692,180.84513 128.09199,181.09904 C 125.79707,181.64591 124.47383,181.96817 124.12226,182.06584 L 109.62031,186.15275 L 109.62031,189.58048 L 120.48945,192.65666 C 123.18477,193.42812 125.71895,193.98476 128.09199,194.32658 C 126.73457,194.59999 125.17696,194.95644 123.41914,195.39591 L 109.62031,198.76505 L 109.62031,201.6215 L 131.09492,195.73283 L 131.09492,192.99357 L 114.73261,188.4672 C 113.36544,188.08633 112.5256,187.86172 112.21308,187.79337 C 113.19943,187.56875 114.03927,187.35879 114.73261,187.16349 L 131.09492,182.60783 L 131.09492,179.70744"
         style="font-size:30px;font-style:normal;font-variant:normal;font-weight:normal;font-stretch:normal;fill:#ffffff;fill-opacity:1;stroke:none;stroke-width:1px;stroke-linecap:butt;stroke-linejoin:miter;stroke-opacity:1;display:inline;font-family:Arial;" />
      <path
         id="text5678"
         d="M 292.10749,179.55157 L 270.63288,179.55157 L 270.63288,195.07891 L 273.16706,195.07891 L 273.16706,182.39337 L 279.74421,182.39337 L 279.74421,194.27325 L 282.26374,194.27325 L 282.26374,182.39337 L 289.57331,182.39337 L 289.57331,195.57696 L 292.10749,195.57696 L 292.10749,179.55157"
         style="font-size:30px;font-style:normal;font-variant:normal;font-weight:normal;font-stretch:normal;fill:#ffffff;fill-opacity:1;stroke:none;stroke-width:1px;stroke-linecap:butt;stroke-linejoin:miter;stroke-opacity:1;display:inline;font-family:Arial;" />
      <path
         id="text5682"
         d="M 231.76021,119.19702 L 233.67662,119.92457 C 232.72721,122.40752 232.99055,124.07511 234.46663,124.92732 C 235.26386,125.38761 236.14822,125.45089 237.11972,125.11719 C 238.09575,124.77559 238.89367,124.06804 239.51347,122.99453 C 240.09679,121.98417 240.29781,121.01619 240.11654,120.09061 C 239.93524,119.16502 239.45388,118.47665 238.67243,118.02547 C 238.34089,117.83407 237.88486,117.67602 237.30433,117.55134 L 238.5857,115.7968 L 238.84435,115.97771 C 239.70472,116.47446 240.55596,116.61334 241.39807,116.39437 C 242.24014,116.17541 242.9164,115.6239 243.42683,114.73982 C 243.89622,113.92681 244.04723,113.14571 243.87987,112.39654 C 243.71704,111.6395 243.312,111.07413 242.66475,110.70042 C 241.9938,110.31306 241.27508,110.24542 240.50859,110.49749 C 239.75453,110.74626 239.0113,111.35909 238.2789,112.33599 L 236.75715,110.95222 C 237.83492,109.59587 238.97934,108.76211 240.19041,108.45093 C 241.40146,108.13979 242.55559,108.30095 243.65279,108.9344 C 244.80522,109.59977 245.53791,110.59113 245.85087,111.90845 C 246.1638,113.2258 245.94657,114.53173 245.1992,115.82624 C 244.74345,116.6156 244.16648,117.21391 243.46827,117.62118 C 242.77792,118.03301 242.02465,118.23485 241.20845,118.22669 C 241.68562,118.71269 242.0049,119.24433 242.16627,119.82162 C 242.32761,120.39892 242.34729,121.05754 242.2253,121.7975 C 242.10329,122.53745 241.82581,123.28237 241.39288,124.03225 C 240.4723,125.62673 239.24841,126.66194 237.72121,127.13788 C 236.19855,127.60592 234.78206,127.46169 233.47176,126.70518 C 232.25616,126.00336 231.48127,124.96659 231.14709,123.5949 C 230.81291,122.22321 231.01728,120.75725 231.76021,119.19702"
         style="font-size:28px;font-style:normal;font-variant:normal;font-weight:bold;font-stretch:normal;fill:#ffffff;fill-opacity:1;stroke:none;stroke-width:1px;stroke-linecap:butt;stroke-linejoin:miter;stroke-opacity:1;display:inline;font-family:Arial Narrow;arduino-headingindicator Narrow Bold" />
      <path
         id="text5686"
         d="M 276.67998,149.25279 L 275.50934,147.60798 C 276.30558,146.92724 276.79972,146.31569 276.99178,145.7733 C 277.27542,144.98858 277.22813,144.26865 276.84989,143.61348 C 276.26198,142.59523 275.15882,142.14284 273.54042,142.25632 C 272.14577,142.35637 270.38056,143.01767 268.24478,144.24025 C 269.23496,144.20531 270.0989,144.38009 270.83661,144.76458 C 271.58218,145.14451 272.15093,145.67389 272.54287,146.35273 C 273.19455,147.48149 273.24886,148.76046 272.7058,150.18961 C 272.17515,151.6221 271.0534,152.83281 269.34054,153.82174 C 268.18019,154.49166 267.00336,154.88694 265.81007,155.00757 C 264.6292,155.13153 263.6224,154.99186 262.78967,154.58858 C 261.95693,154.18529 261.31041,153.58503 260.85013,152.7878 C 260.0207,151.35119 259.98436,149.79347 260.74114,148.11465 C 261.4979,146.43582 263.38788,144.72369 266.41108,142.97825 C 269.76579,141.0414 272.42928,140.14038 274.40155,140.27517 C 276.38168,140.40541 277.80242,141.21647 278.66376,142.70832 C 279.28809,143.78973 279.4389,144.90773 279.11621,146.06231 C 278.80593,147.22023 277.99385,148.28372 276.67998,149.25279 M 265.07491,146.43346 C 263.81984,147.15808 262.98039,148.03742 262.55652,149.07148 C 262.14053,150.10099 262.15814,151.00646 262.60932,151.78792 C 263.0058,152.47465 263.71813,152.87903 264.74634,153.00108 C 265.77909,153.13102 266.923,152.83368 268.17807,152.10907 C 269.40943,151.39813 270.2096,150.57832 270.57855,149.64964 C 270.94747,148.72096 270.90864,147.86984 270.46204,147.09628 C 270.02453,146.3385 269.30229,145.87142 268.29534,145.69501 C 267.30083,145.52196 266.22735,145.7681 265.07491,146.43346"
         style="font-size:28px;font-style:normal;font-variant:normal;font-weight:bold;font-stretch:normal;fill:#ffffff;fill-opacity:1;stroke:none;stroke-width:1px;stroke-linecap:butt;stroke-linejoin:miter;stroke-opacity:1;display:inline;font-family:Arial Narrow;arduino-headingindicator Narrow Bold" />
      <path
         id="text5690"
         d="M 264.11758,217.78228 L 265.05703,216.1551 L 277.66768,223.43586 C 277.44372,222.80813 277.28282,222.0458 277.18499,221.14886 C 277.09448,220.25613 277.08429,219.47819 277.15444,218.81505 L 279.06748,219.91954 C 279.06427,221.10997 279.23604,222.25972 279.58278,223.3688 C 279.92528,224.48518 280.36795,225.38577 280.91081,226.07056 L 280.30143,227.12603 L 264.11758,217.78228 M 258.69443,231.56803 L 256.79239,230.46989 L 261.83877,221.72929 C 262.62108,222.15164 263.34902,222.87975 264.02257,223.91364 C 264.69189,224.95485 265.30072,226.49865 265.84904,228.54502 C 266.48297,230.93399 267.07497,232.60001 267.62507,233.54307 C 268.18248,234.49035 268.81667,235.16923 269.52765,235.57973 C 270.34857,236.05367 271.15521,236.19688 271.94759,236.00937 C 272.74305,235.83338 273.34391,235.39357 273.75017,234.68994 C 274.18603,233.93497 274.26509,233.15482 273.98734,232.34945 C 273.70958,231.54407 273.0503,230.84094 272.0095,230.24003 L 273.18324,228.68948 C 274.66207,229.69965 275.57203,230.8065 275.91311,232.01003 C 276.25726,233.2251 276.07176,234.45199 275.35661,235.69071 C 274.57795,237.03935 273.53529,237.7958 272.22864,237.96006 C 270.91775,238.13163 269.68326,237.8831 268.52518,237.2145 C 267.49902,236.62203 266.66976,235.78167 266.03739,234.69339 C 265.41235,233.60932 264.75355,231.85587 264.06098,229.43305 C 263.63007,227.89424 263.31756,226.87823 263.12345,226.38503 C 262.9251,225.89914 262.69713,225.46456 262.43955,225.0813 L 258.69443,231.56803"
         style="font-size:26px;font-style:normal;font-variant:normal;font-weight:bold;font-stretch:normal;fill:#ffffff;fill-opacity:1;stroke:none;stroke-width:1px;stroke-linecap:butt;stroke-linejoin:miter;stroke-opacity:1;display:inline;font-family:Arial Narrow;arduino-headingindicator Narrow Bold" />
      <path
         id="text5694"
         d="M 241.37915,245.00815 L 243.1315,243.99643 L 250.97232,257.57713 C 251.10145,256.87108 251.36187,256.07346 251.75361,255.18426 C 252.14989,254.30292 252.55927,253.5719 252.98178,252.9912 L 254.17123,255.0514 C 253.52723,256.15991 253.06834,257.32471 252.79453,258.5458 C 252.51283,259.7714 252.44076,260.84969 252.57831,261.78066 L 251.44165,262.43691 L 241.37915,245.00815 M 239.55224,252.12509 L 237.82638,253.37411 C 237.04628,252.35104 236.25036,251.71075 235.43861,251.45321 C 234.62354,251.20812 233.88448,251.27698 233.22143,251.6598 C 232.39261,252.13831 231.89701,252.92963 231.7346,254.03377 C 231.57676,255.14578 231.87837,256.36089 232.63943,257.6791 C 233.35493,258.91836 234.2007,259.7088 235.17674,260.05041 C 236.14945,260.40445 237.07389,260.32854 237.95006,259.8227 C 238.47892,259.51735 238.88962,259.08026 239.18216,258.51144 C 239.47136,257.95505 239.59748,257.33495 239.56052,256.65115 L 241.3567,255.96145 L 245.11886,265.67691 L 238.05026,269.75797 L 236.87448,267.72145 L 242.54593,264.44704 L 240.62219,259.33767 C 240.19685,260.55148 239.51058,261.43184 238.56337,261.97872 C 237.37146,262.66686 236.04347,262.75473 234.5794,262.24236 C 233.11201,261.74239 231.88156,260.63204 230.88807,258.91128 C 229.90826,257.21417 229.50947,255.50262 229.69171,253.77662 C 229.87062,252.06305 230.70206,250.77789 232.18603,249.92112 C 233.41741,249.21018 234.70544,249.03487 236.05012,249.39517 C 237.39146,249.76793 238.55883,250.6779 239.55224,252.12509"
         style="font-size:28px;font-style:normal;font-variant:normal;font-weight:bold;font-stretch:normal;fill:#ffffff;fill-opacity:1;stroke:none;stroke-width:1px;stroke-linecap:butt;stroke-linejoin:miter;stroke-opacity:1;display:inline;font-family:Arial Narrow;arduino-headingindicator Narrow Bold" />
      <path
         id="text5698"
         d="M 164.5957,251.08093 L 165.77832,249.03257 L 175.19127,254.46714 C 174.73644,255.30962 173.95231,256.09355 172.8389,256.81892 C 171.71759,257.53972 170.05505,258.19539 167.85125,258.78589 C 165.27852,259.46858 163.48434,260.10612 162.46873,260.69853 C 161.44859,261.29882 160.71749,261.9818 160.27541,262.74747 C 159.76502,263.63152 159.61078,264.50022 159.81273,265.35356 C 160.00225,266.21021 160.4759,266.85728 161.23365,267.2948 C 162.04669,267.76418 162.88686,267.84933 163.75417,267.55022 C 164.62151,267.25108 165.37873,266.54109 166.02586,265.42023 L 167.69568,266.68425 C 166.60781,268.27684 165.41581,269.2568 164.11971,269.62412 C 162.81117,269.99474 161.4899,269.79497 160.15589,269.02481 C 158.70351,268.18625 157.88887,267.0634 157.71198,265.65623 C 157.52722,264.24449 157.79485,262.91504 158.51489,261.66788 C 159.15293,260.56279 160.05794,259.66974 161.22993,258.98874 C 162.3974,258.31561 164.28571,257.60612 166.89492,256.86028 C 168.5521,256.39623 169.64625,256.05968 170.1774,255.85064 C 170.70066,255.63703 171.16867,255.39153 171.58141,255.11413 L 164.5957,251.08093 M 157.37178,244.17905 L 159.12413,245.19077 L 151.28331,258.77147 C 151.95933,258.53027 152.7803,258.35701 153.74624,258.25165 C 154.70764,258.15417 155.54541,258.14321 156.25957,258.21875 L 155.07012,260.27895 C 153.78811,260.27549 152.54992,260.46046 151.35553,260.83389 C 150.15327,261.20274 149.18341,261.67946 148.44594,262.26406 L 147.30928,261.60781 L 157.37178,244.17905"
         style="font-size:28px;font-style:normal;font-variant:normal;font-weight:bold;font-stretch:normal;fill:#ffffff;fill-opacity:1;stroke:none;stroke-width:1px;stroke-linecap:butt;stroke-linejoin:miter;stroke-opacity:1;display:inline;font-family:Arial Narrow;arduino-headingindicator Narrow Bold" />
      <path
         id="text5702"
         d="M 138.23669,224.17882 L 140.28504,222.9962 L 145.71961,232.40915 C 144.90447,232.91135 143.83344,233.19819 142.5065,233.26967 C 141.17502,233.33326 139.40738,233.0698 137.20359,232.4793 C 134.63419,231.78415 132.76162,231.4392 131.58587,231.44443 C 130.40226,231.45422 129.42762,231.68015 128.66193,232.12221 C 127.77788,232.63262 127.20997,233.30782 126.95819,234.1478 C 126.694,234.98444 126.78064,235.78165 127.21812,236.53942 C 127.68754,237.35244 128.37258,237.84626 129.27325,238.02088 C 130.17395,238.19549 131.18473,237.95923 132.30558,237.3121 L 133.11968,239.24169 C 131.38126,240.07698 129.85899,240.32965 128.55287,239.9997 C 127.23432,239.6664 126.18995,238.83276 125.41975,237.49877 C 124.58123,236.04638 124.43716,234.66663 124.98755,233.35954 C 125.53341,232.04456 126.42992,231.02705 127.67706,230.30699 C 128.78217,229.66898 130.01246,229.34808 131.36794,229.3443 C 132.71555,229.34508 134.70563,229.67482 137.33818,230.3335 C 139.00537,230.76021 140.12122,231.01583 140.68572,231.10036 C 141.24568,231.17701 141.77374,231.1984 142.26989,231.16454 L 138.23669,224.17882 M 135.99891,215.57241 L 131.843,217.97182 L 135.40452,224.14055 L 133.45089,225.26848 L 118.44978,225.26236 L 117.62947,223.84154 L 128.87765,217.3474 L 127.76339,215.41745 L 129.71702,214.28952 L 130.83128,216.21947 L 134.98719,213.82006 L 135.99891,215.57241 M 129.88937,219.09975 L 122.063,223.61831 L 132.45968,223.55166 L 129.88937,219.09975"
         style="font-size:28px;font-style:normal;font-variant:normal;font-weight:bold;font-stretch:normal;fill:#ffffff;fill-opacity:1;stroke:none;stroke-width:1px;stroke-linecap:butt;stroke-linejoin:miter;stroke-opacity:1;display:inline;font-family:Arial Narrow;arduino-headingindicator Narrow Bold" />
      <path
         id="text5706"
         d="M 129.3536,161.26321 L 130.08115,159.3468 C 132.56411,160.2962 134.23169,160.03287 135.0839,158.55679 C 135.54419,157.75955 135.60748,156.87519 135.27378,155.9037 C 134.93218,154.92766 134.22462,154.12975 133.15111,153.50994 C 132.14075,152.92662 131.17277,152.7256 130.24719,152.90688 C 129.32161,153.08817 128.63323,153.56954 128.18205,154.35098 C 127.99065,154.68252 127.83261,155.13855 127.70792,155.71908 L 125.95338,154.43772 L 126.13428,154.17907 C 126.63104,153.31869 126.76993,152.46745 126.55095,151.62535 C 126.332,150.78327 125.78048,150.10701 124.8964,149.59658 C 124.08339,149.1272 123.30229,148.97618 122.55312,149.14354 C 121.79608,149.30637 121.2307,149.71141 120.857,150.35867 C 120.46964,151.02962 120.402,151.74834 120.65407,152.51482 C 120.90283,153.26888 121.51567,154.01211 122.49257,154.74451 L 121.1088,156.26627 C 119.75245,155.18849 118.91869,154.04407 118.60752,152.833 C 118.29638,151.62196 118.45753,150.46783 119.09098,149.37063 C 119.75636,148.2182 120.74771,147.4855 122.06503,147.17254 C 123.38237,146.85961 124.68831,147.07684 125.98283,147.82421 C 126.77218,148.27996 127.37049,148.85694 127.77776,149.55514 C 128.1896,150.24549 128.39144,150.99876 128.38327,151.81496 C 128.86927,151.33778 129.40091,151.01851 129.9782,150.85714 C 130.55549,150.6958 131.21412,150.67612 131.95407,150.79811 C 132.69403,150.92012 133.43896,151.1976 134.18884,151.63053 C 135.78331,152.55111 136.81852,153.775 137.29446,155.30221 C 137.7625,156.82487 137.61827,158.24135 136.86176,159.55166 C 136.15994,160.76726 135.12318,161.54214 133.75148,161.87632 C 132.37979,162.21051 130.91382,162.00614 129.3536,161.26321 M 131.76689,147.89575 C 128.85422,146.21412 126.87358,144.54964 125.82498,142.90229 C 124.78097,141.24707 124.70102,139.65379 125.58512,138.12244 C 126.36899,136.76479 127.59429,136.04613 129.26105,135.96649 C 131.27612,135.86695 133.89785,136.74913 137.12627,138.61305 C 140.02317,140.28559 141.99986,141.9478 143.05634,143.59968 C 144.10492,145.24702 144.18488,146.84031 143.29621,148.37953 C 142.51236,149.7372 141.20673,150.46737 139.37932,150.57002 C 137.55648,150.66478 135.01901,149.77337 131.76689,147.89575 M 132.79912,146.10789 C 135.6171,147.73485 137.66253,148.55794 138.93542,148.57717 C 140.20498,148.58396 141.08357,148.16505 141.57121,147.32044 C 142.03149,146.52321 141.93113,145.57594 141.27014,144.47863 C 140.60914,143.38134 138.88149,142.02605 136.08721,140.41275 C 133.26136,138.78126 131.21364,137.96211 129.94407,137.95531 C 128.67909,137.94065 127.79821,138.36351 127.30146,139.22388 C 126.84574,140.01324 126.94837,140.95656 127.60936,142.05385 C 128.27493,143.14327 130.00484,144.49461 132.79912,146.10789"
         style="font-size:28px;font-style:normal;font-variant:normal;font-weight:bold;font-stretch:normal;fill:#ffffff;fill-opacity:1;stroke:none;stroke-width:1px;stroke-linecap:butt;stroke-linejoin:miter;stroke-opacity:1;display:inline;font-family:Arial Narrow;arduino-headingindicator Narrow Bold" />
      <path
         id="text5710"
         d="M 152.86712,128.48838 L 154.45541,127.1925 C 156.13101,129.25619 157.70684,129.86192 159.18292,129.00971 C 159.98016,128.54942 160.47715,127.81519 160.6739,126.807 C 160.86609,125.79093 160.65228,124.74614 160.0325,123.67262 C 159.44916,122.66226 158.71138,122.00419 157.81916,121.69838 C 156.92694,121.3926 156.0901,121.46529 155.30865,121.91645 C 154.97712,122.10787 154.61223,122.42378 154.21399,122.86419 L 153.33519,120.87723 L 153.62118,120.74368 C 154.48157,120.24695 155.02748,119.5792 155.25889,118.74043 C 155.49031,117.90168 155.35081,117.04027 154.84039,116.15619 C 154.37099,115.34318 153.77005,114.82185 153.03757,114.5922 C 152.30054,114.3547 151.60839,114.42279 150.96112,114.79647 C 150.29018,115.18386 149.87224,115.77246 149.70731,116.5623 C 149.54571,117.33971 149.70483,118.28979 150.18465,119.41252 L 148.22539,120.03851 C 147.58964,118.42695 147.43979,117.01897 147.77585,115.81457 C 148.11191,114.6102 148.82854,113.69128 149.92572,113.0578 C 151.07817,112.39245 152.30305,112.25359 153.60037,112.64122 C 154.89769,113.02889 155.92005,113.86998 156.66745,115.16449 C 157.12317,115.95385 157.35284,116.75268 157.35644,117.56098 C 157.36793,118.36476 157.16609,119.11803 156.75092,119.8208 C 157.4104,119.65055 158.03045,119.63988 158.61108,119.78877 C 159.1917,119.93769 159.77193,120.24996 160.35175,120.72558 C 160.93157,121.20123 161.43795,121.81399 161.8709,122.56385 C 162.79146,124.15834 163.07604,125.73587 162.72461,127.29644 C 162.36861,128.84912 161.53547,130.00372 160.22516,130.76022 C 159.00956,131.46205 157.72426,131.61474 156.36924,131.2183 C 155.01422,130.82186 153.84685,129.91189 152.86712,128.48838 M 163.94954,122.08995 L 165.53783,120.79407 C 167.21343,122.85775 168.78926,123.46348 170.26534,122.61127 C 171.06258,122.15099 171.55957,121.41675 171.75632,120.40856 C 171.9485,119.39249 171.7347,118.3477 171.11492,117.27418 C 170.53158,116.26383 169.7938,115.60575 168.90158,115.29994 C 168.00936,114.99416 167.17252,115.06685 166.39107,115.51801 C 166.05954,115.70943 165.69465,116.02534 165.29641,116.46575 L 164.41761,114.47879 L 164.7036,114.34524 C 165.56399,113.84851 166.1099,113.18076 166.34131,112.34199 C 166.57273,111.50324 166.43323,110.64184 165.92281,109.75775 C 165.45341,108.94475 164.85247,108.42341 164.11999,108.19377 C 163.38296,107.95626 162.69081,108.02435 162.04354,108.39803 C 161.3726,108.78542 160.95466,109.37403 160.78973,110.16386 C 160.62813,110.94127 160.78725,111.89135 161.26707,113.01408 L 159.30781,113.64007 C 158.67206,112.02851 158.52221,110.62053 158.85827,109.41613 C 159.19433,108.21177 159.91096,107.29284 161.00814,106.65936 C 162.16059,105.99401 163.38547,105.85515 164.68279,106.24278 C 165.98011,106.63045 167.00247,107.47154 167.74986,108.76605 C 168.20559,109.55541 168.43525,110.35424 168.43886,111.16254 C 168.45035,111.96632 168.24851,112.71959 167.83334,113.42236 C 168.49281,113.25211 169.11286,113.24144 169.6935,113.39033 C 170.27412,113.53925 170.85435,113.85152 171.43417,114.32714 C 172.01399,114.80279 172.52037,115.41555 172.95332,116.16541 C 173.87388,117.7599 174.15845,119.33743 173.80703,120.898 C 173.45103,122.45068 172.61789,123.60528 171.30758,124.36179 C 170.09198,125.06361 168.80668,125.2163 167.45166,124.81986 C 166.09664,124.42342 164.92927,123.51345 163.94954,122.08995"
         style="font-size:28px;font-style:normal;font-variant:normal;font-weight:bold;font-stretch:normal;fill:#ffffff;fill-opacity:1;stroke:none;stroke-width:1px;stroke-linecap:butt;stroke-linejoin:miter;stroke-opacity:1;display:inline;font-family:Arial Narrow;arduino-headingindicator Narrow Bold" />
    </g>
  </g>
</svg>
